<svg width="320" height="220" viewBox="0 0 320 220" fill="none" xmlns="http://www.w3.org/2000/svg">
<rect x="16" y="18" width="288" height="184" rx="28" fill="url(#a)"/>
<path d="M74 144c0-28 20-54 46-54 22 0 34 18 40 36 4-5 12-10 21-10 17 0 31 13 31 31v13H86c-7 0-12-6-12-16z" fill="#FFE0B3"/>
<path d="M92 86c0-18 15-32 34-32 10 0 19 4 25 11 5-5 12-8 20-8 17 0 31 14 31 31 0 4-1 8-2 12H95c-2-4-3-9-3-14z" fill="#FFF1D7"/>
<rect x="216" y="66" width="58" height="86" rx="18" fill="#5E3625" fill-opacity=".42" stroke="#fff" stroke-opacity=".14"/>
<rect x="230" y="82" width="30" height="10" rx="5" fill="#FFE8C9"/>
<rect x="230" y="104" width="30" height="10" rx="5" fill="#FFE8C9" fill-opacity=".6"/>
<rect x="230" y="126" width="20" height="10" rx="5" fill="#FFE8C9" fill-opacity=".4"/>
<defs>
<linearGradient id="a" x1="18" y1="18" x2="292" y2="202" gradientUnits="userSpaceOnUse">
<stop stop-color="#4A2313"/>
<stop offset="1" stop-color="#B16A40"/>
</linearGradient>
</defs>
</svg>
